<!-- Generator: Adobe Illustrator 21.0.0, SVG Export Plug-In  -->
<svg version="1.1"
	 xmlns="http://www.w3.org/2000/svg" xmlns:xlink="http://www.w3.org/1999/xlink" xmlns:a="http://ns.adobe.com/AdobeSVGViewerExtensions/3.0/"
	 x="0px" y="0px" width="78.918px" height="91.39px" viewBox="0 0 78.918 91.39"
	 style="overflow:scroll;enable-background:new 0 0 78.918 91.39;" xml:space="preserve">
<style type="text/css">
	.st0{fill:#FFFFFF;}
	.st1{fill-rule:evenodd;clip-rule:evenodd;}
	.st2{fill:#7E983D;}
</style>
<defs>
</defs>
<g>
	<g>
		<path class="st0" d="M77.177,83.718c0.12-0.374,0.108-0.759,0.111-1.136c0.011-2.295,0.012-4.59,0.017-6.885
			c0.003-2.283,0.007-4.566,0.016-6.848c0.001-0.331,0.022-0.664,0.068-0.991c0.071-0.514,0.225-0.828,0.854-0.902
			c0.166-0.019,0.331-0.039,0.49-0.082c0.07-0.021,0.123-0.103,0.185-0.154c-0.063-0.046-0.12-0.116-0.191-0.135
			c-0.097-0.022-0.203-0.01-0.305-0.009c-0.649,0.016-1.3,0.046-1.949,0.045c-0.752-0.001-1.504-0.03-2.255-0.044
			c-0.089-0.001-0.18,0.004-0.266,0.025c-0.039,0.009-0.1,0.065-0.097,0.096c0.006,0.055,0.041,0.126,0.086,0.148
			c0.063,0.031,0.147,0.028,0.224,0.036c0.214,0.021,0.431,0.033,0.646,0.061c0.729,0.093,0.991,0.36,1.112,1.176
			c0.008,0.051,0.011,0.103,0.012,0.153c0.036,1.223,0.076,2.445,0.106,3.667c0.023,0.994,0.032,1.987,0.054,2.982
			c0.039,1.745,0.084,3.49,0.125,5.235c0.004,0.095,0,0.188,0,0.311c-0.15-0.137-0.272-0.229-0.373-0.339
			c-4.168-4.512-8.335-9.027-12.503-13.54c-0.078-0.084-0.159-0.167-0.25-0.235c-0.202-0.153-0.328-0.112-0.392,0.122
			c-0.024,0.087-0.034,0.178-0.037,0.266c-0.008,0.37-0.012,0.737-0.015,1.105c-0.011,0.957-0.021,1.913-0.025,2.869
			c-0.008,1.9-0.011,3.8-0.013,5.699c-0.004,1.531,0.01,3.06-0.008,4.591c-0.005,0.494-0.072,0.989-0.14,1.48
			c-0.059,0.417-0.328,0.648-0.741,0.709c-0.227,0.033-0.457,0.045-0.682,0.086c-0.068,0.012-0.125,0.091-0.188,0.14
			c0.06,0.053,0.111,0.133,0.182,0.154c0.094,0.029,0.202,0.018,0.303,0.016c0.777-0.016,1.555-0.045,2.331-0.046
			c0.664-0.001,1.326,0.03,1.987,0.046c0.104,0.002,0.211,0.012,0.304-0.018c0.071-0.023,0.122-0.102,0.184-0.155
			c-0.063-0.049-0.119-0.128-0.188-0.138c-0.252-0.038-0.507-0.042-0.76-0.078c-0.644-0.093-0.92-0.339-1.045-0.983
			c-0.078-0.398-0.132-0.807-0.146-1.213c-0.062-1.719-0.107-3.437-0.156-5.157c-0.053-1.859-0.103-3.719-0.152-5.579
			c-0.003-0.129,0.005-0.259,0.009-0.474c0.165,0.178,0.261,0.278,0.352,0.381c3.846,4.31,7.762,8.552,11.854,12.628
			c0.253,0.252,0.515,0.498,0.781,0.734C76.811,83.649,76.935,83.772,77.177,83.718z"/>
		<path class="st0" d="M3.859,74.956c0.126-0.017,0.202-0.037,0.276-0.035c1.006,0.031,2.013,0.062,3.018,0.102
			c0.164,0.006,0.328,0.049,0.488,0.09c0.473,0.126,0.736,0.436,0.792,0.92c0.018,0.178,0.023,0.357,0.048,0.532
			c0.013,0.098,0.039,0.213,0.207,0.171c0.029-0.058,0.082-0.123,0.09-0.192c0.095-0.962,0.184-1.925,0.271-2.889
			c0.005-0.058-0.022-0.118-0.035-0.182c-0.059,0-0.099-0.012-0.131,0.002c-0.045,0.021-0.093,0.049-0.121,0.087
			c-0.26,0.354-0.631,0.458-1.042,0.464c-1.236,0.022-2.473,0.041-3.709,0.058c-0.035,0-0.07-0.021-0.134-0.043
			c-0.014-0.101-0.039-0.211-0.039-0.321c-0.002-1.965-0.004-3.93,0-5.894c0.001-0.349,0.05-0.388,0.41-0.38
			c0.866,0.021,1.733,0.031,2.599,0.069c0.329,0.015,0.657,0.077,0.98,0.145c0.555,0.115,0.853,0.475,0.915,1.034
			c0.015,0.139,0.019,0.279,0.037,0.418c0.014,0.109,0.013,0.263,0.172,0.241c0.067-0.01,0.15-0.126,0.171-0.209
			c0.042-0.157,0.051-0.326,0.061-0.491c0.043-0.634,0.048-1.273,0.219-1.895c0.029-0.108-0.002-0.235-0.006-0.415
			c-0.596,0.291-1.175,0.277-1.742,0.278c-1.859,0.006-3.722-0.016-5.583-0.029C1.485,66.588,0.9,66.58,0.312,66.58
			c-0.13,0-0.294-0.034-0.312,0.229c0.126,0.029,0.255,0.064,0.387,0.084c0.188,0.03,0.381,0.034,0.566,0.073
			c0.607,0.132,0.856,0.387,0.903,1.015c0.053,0.723,0.077,1.451,0.077,2.177c0,3.52-0.009,7.038-0.029,10.56
			c-0.002,0.533-0.056,1.069-0.139,1.597c-0.104,0.664-0.351,0.866-1.006,0.945c-0.089,0.01-0.184,0.002-0.264,0.032
			c-0.071,0.027-0.125,0.096-0.187,0.144c0.005,0.029,0.012,0.058,0.017,0.087c0.14,0.022,0.282,0.067,0.423,0.066
			c0.814-0.01,1.63-0.047,2.444-0.043s1.63,0.052,2.446,0.067c1.095,0.021,2.192,0.037,3.288,0.04
			c0.484,0.001,0.655-0.123,0.739-0.601c0.123-0.701,0.199-1.411,0.289-2.118c0.013-0.099,0-0.206-0.019-0.303
			c-0.009-0.038-0.066-0.085-0.106-0.091c-0.041-0.005-0.109,0.025-0.125,0.06c-0.045,0.089-0.072,0.188-0.1,0.285
			c-0.059,0.223-0.105,0.446-0.171,0.666c-0.169,0.565-0.552,0.915-1.126,1.021c-0.411,0.076-0.832,0.142-1.249,0.146
			c-0.661,0.01-1.327-0.004-1.984-0.063c-0.741-0.068-1.072-0.415-1.167-1.139c-0.04-0.303-0.067-0.608-0.069-0.913
			C3.835,78.87,3.837,77.134,3.839,75.4C3.839,75.262,3.852,75.126,3.859,74.956z"/>
		<path class="st0" d="M6.227,88.435c0.019,0.008,0.039,0.017,0.058,0.023c-0.064,0.337-0.127,0.673-0.191,1.007
			c-0.099,0.5-0.202,0.998-0.299,1.498c-0.05,0.245,0.021,0.335,0.26,0.345c0.269,0.011,0.39-0.086,0.433-0.367
			c0.077-0.465,0.141-0.933,0.226-1.396c0.104-0.563,0.222-1.123,0.34-1.683c0.029-0.148,0.046-0.281-0.131-0.346
			C6.586,87.39,6.182,87.543,6,87.861c-0.373,0.651-0.745,1.305-1.12,1.954c-0.04,0.069-0.1,0.127-0.187,0.233
			c-0.117-0.739-0.227-1.417-0.333-2.095c-0.055-0.347-0.151-0.439-0.495-0.458c-0.061-0.003-0.126-0.004-0.191,0.001
			c-0.274,0.021-0.342,0.095-0.388,0.369c-0.083,0.502-0.162,1.005-0.272,1.5c-0.119,0.534-0.273,1.062-0.408,1.591
			c-0.066,0.266,0.043,0.386,0.311,0.347c0.207-0.029,0.295-0.124,0.346-0.389c0.095-0.502,0.181-1.004,0.277-1.503
			c0.055-0.29,0.122-0.578,0.184-0.866c0.111,0.185,0.154,0.365,0.185,0.549c0.105,0.563,0.207,1.126,0.303,1.69
			c0.021,0.121,0.05,0.249,0.181,0.256c0.116,0.007,0.24-0.042,0.351-0.089c0.047-0.021,0.071-0.101,0.105-0.155
			c0.394-0.685,0.788-1.369,1.182-2.052C6.091,88.638,6.161,88.538,6.227,88.435z"/>
		<path class="st0" d="M69.979,88.384c0.027-0.004,0.055-0.009,0.082-0.013c0.036,0.077,0.076,0.152,0.11,0.233
			c0.347,0.792,0.692,1.586,1.04,2.378c0.115,0.261,0.271,0.36,0.492,0.326c0.234-0.038,0.244-0.225,0.279-0.401
			c0.208-1.02,0.424-2.04,0.627-3.063c0.018-0.087,0.006-0.244-0.043-0.269c-0.101-0.05-0.255-0.073-0.347-0.028
			c-0.093,0.047-0.172,0.185-0.193,0.294c-0.093,0.437-0.16,0.876-0.236,1.315c-0.061,0.34-0.12,0.681-0.179,1.022
			c-0.113-0.096-0.161-0.195-0.205-0.295c-0.3-0.688-0.596-1.377-0.896-2.064c-0.122-0.277-0.378-0.395-0.691-0.327
			c-0.225,0.047-0.285,0.148-0.311,0.493c-0.012,0.165-0.025,0.33-0.057,0.492c-0.164,0.822-0.334,1.644-0.504,2.467
			c-0.051,0.252,0.072,0.39,0.322,0.355c0.195-0.026,0.281-0.121,0.318-0.359C69.72,90.089,69.85,89.236,69.979,88.384z"/>
		<path class="st0" d="M54.681,88.38c0.026,0,0.053-0.002,0.078-0.003c0.022,0.044,0.043,0.088,0.063,0.133
			c0.358,0.815,0.716,1.631,1.072,2.446c0.12,0.273,0.258,0.374,0.478,0.354c0.195-0.019,0.242-0.096,0.309-0.414
			c0.208-1.021,0.413-2.042,0.638-3.06c0.063-0.277-0.157-0.386-0.351-0.323c-0.164,0.051-0.23,0.17-0.257,0.337
			c-0.098,0.617-0.206,1.23-0.313,1.845c-0.029,0.164-0.069,0.326-0.103,0.489c-0.215-0.351-0.367-0.698-0.518-1.046
			c-0.192-0.442-0.381-0.889-0.576-1.331c-0.115-0.262-0.35-0.37-0.661-0.317c-0.24,0.039-0.305,0.144-0.338,0.469
			c-0.031,0.317-0.065,0.634-0.127,0.945c-0.136,0.686-0.29,1.368-0.435,2.053c-0.049,0.231,0.066,0.364,0.298,0.349
			c0.2-0.016,0.309-0.118,0.344-0.338c0.05-0.327,0.091-0.655,0.144-0.983C54.507,89.45,54.595,88.916,54.681,88.38z"/>
		<path class="st0" d="M13.177,76.983c0.084,0.022,0.122,0.043,0.154,0.039c0.087-0.016,0.173-0.043,0.258-0.063
			c0.777-0.195,1.547-0.416,2.33-0.58c0.957-0.199,1.925-0.351,2.887-0.529c0.148-0.026,0.296-0.077,0.432-0.143
			c0.056-0.025,0.114-0.118,0.109-0.175c-0.007-0.052-0.092-0.126-0.151-0.135c-0.188-0.028-0.38-0.042-0.569-0.043
			c-1.502-0.002-3.003-0.002-4.504-0.002c-0.102,0-0.204,0.004-0.307,0.006c-0.202,0.005-0.324,0.09-0.369,0.306
			c-0.068,0.337-0.168,0.666-0.245,1.001C13.179,76.759,13.185,76.863,13.177,76.983z"/>
		<path class="st0" d="M33.682,90.944c-0.698,0.279-1.185-0.117-1.271-0.708c-0.117-0.815,0.084-1.542,0.671-2.141
			c0.333-0.341,0.731-0.38,1.164-0.248c0.084,0.026,0.162,0.076,0.244,0.109c0.186,0.07,0.335,0.029,0.393-0.104
			c0.06-0.132-0.025-0.293-0.216-0.337c-0.819-0.188-1.595-0.163-2.245,0.472c-0.566,0.553-0.797,1.244-0.781,2.007
			c0.017,0.923,0.539,1.398,1.462,1.388c0.305-0.003,0.61-0.044,0.914-0.079c0.196-0.021,0.32-0.139,0.361-0.339
			c0.073-0.361,0.157-0.722,0.224-1.085c0.039-0.213-0.043-0.307-0.256-0.336c-0.252-0.033-0.382,0.054-0.436,0.308
			C33.83,90.221,33.754,90.594,33.682,90.944z"/>
		<path class="st0" d="M9.414,90.918c-0.155,0.01-0.302,0.021-0.448,0.028c-0.267,0.015-0.532,0.036-0.799,0.037
			c-0.152,0.002-0.293-0.055-0.27-0.244c0.05-0.424,0.115-0.845,0.251-1.272c0.243,0,0.459,0.013,0.672-0.004
			c0.119-0.011,0.24-0.089,0.202-0.223c-0.02-0.065-0.148-0.131-0.234-0.141c-0.184-0.021-0.375-0.006-0.598-0.006
			c0.087-0.435,0.164-0.826,0.246-1.242c0.192,0,0.344-0.003,0.495,0.001c0.229,0.006,0.459,0.016,0.688,0.016
			c0.136,0,0.273-0.042,0.271-0.202c-0.003-0.136-0.127-0.176-0.252-0.183c-0.024,0-0.05-0.001-0.077-0.001
			c-0.457,0-0.916-0.004-1.373,0.003c-0.324,0.006-0.413,0.102-0.47,0.427c-0.179,1.027-0.359,2.055-0.54,3.082
			c-0.041,0.234,0.005,0.32,0.228,0.323c0.56,0.01,1.121,0.013,1.682,0C9.327,91.312,9.384,91.23,9.414,90.918z"/>
		<path class="st0" d="M15.823,90.902c-0.158,0.019-0.253,0.024-0.347,0.04c-0.161,0.029-0.321,0.086-0.484,0.093
			c-0.55,0.02-0.944-0.254-1.042-0.756c-0.129-0.663-0.024-1.298,0.36-1.861c0.368-0.542,0.936-0.726,1.575-0.54
			c0.072,0.021,0.157,0.068,0.217,0.047c0.086-0.029,0.195-0.101,0.212-0.174c0.018-0.07-0.05-0.193-0.116-0.244
			c-0.074-0.056-0.189-0.067-0.29-0.082c-1.727-0.26-3.119,1.316-2.659,3.006c0.124,0.456,0.404,0.784,0.866,0.869
			c0.394,0.074,0.807,0.07,1.211,0.061C15.544,91.356,15.724,91.224,15.823,90.902z"/>
		<path class="st0" d="M42.362,90.9c-0.133,0.021-0.238,0.037-0.343,0.055c-0.15,0.027-0.299,0.075-0.449,0.081
			c-0.549,0.019-0.948-0.246-1.045-0.754c-0.134-0.715-0.025-1.403,0.452-1.98c0.373-0.454,0.867-0.6,1.441-0.437
			c0.071,0.021,0.154,0.077,0.215,0.059c0.1-0.027,0.219-0.084,0.266-0.165c0.068-0.119-0.03-0.217-0.143-0.266
			c-0.081-0.035-0.17-0.053-0.258-0.067c-1.251-0.203-2.325,0.486-2.646,1.708c-0.061,0.232-0.11,0.476-0.104,0.715
			c0.018,0.897,0.347,1.369,1.145,1.508c0.32,0.055,0.661,0.034,0.987,0.008C42.117,91.347,42.317,91.232,42.362,90.9z"/>
		<path class="st0" d="M63.368,90.934c-0.089-0.006-0.162-0.024-0.231-0.011c-0.149,0.025-0.294,0.084-0.444,0.101
			c-0.658,0.077-1.096-0.238-1.189-0.891c-0.091-0.625,0.039-1.22,0.405-1.739c0.368-0.523,0.93-0.701,1.55-0.521
			c0.073,0.022,0.161,0.074,0.215,0.05c0.093-0.039,0.2-0.115,0.23-0.199c0.02-0.056-0.082-0.163-0.144-0.232
			c-0.028-0.031-0.095-0.029-0.145-0.041c-1.066-0.265-2.214,0.309-2.636,1.321c-0.192,0.455-0.257,0.931-0.199,1.419
			c0.073,0.622,0.398,1.017,1.012,1.133c0.357,0.067,0.732,0.059,1.098,0.039C63.121,91.352,63.324,91.233,63.368,90.934z"/>
		<path class="st0" d="M47.424,90.902c0.023-0.226,0.03-0.415,0.064-0.597c0.152-0.824,0.311-1.648,0.476-2.472
			c0.029-0.149,0.002-0.251-0.136-0.313c-0.227-0.103-0.479,0.017-0.535,0.262c-0.046,0.198-0.063,0.402-0.101,0.601
			c-0.165,0.861-0.333,1.723-0.5,2.584c-0.046,0.235,0.008,0.339,0.22,0.344c0.521,0.013,1.043,0.014,1.564-0.004
			c0.108-0.004,0.219-0.107,0.312-0.185c0.035-0.03,0.044-0.125,0.023-0.171c-0.023-0.045-0.097-0.079-0.15-0.085
			c-0.06-0.008-0.123,0.033-0.185,0.033C48.15,90.905,47.823,90.902,47.424,90.902z"/>
		<path class="st0" d="M76.683,90.9c0.017-0.189,0.016-0.352,0.045-0.51c0.157-0.849,0.323-1.696,0.482-2.546
			c0.045-0.234-0.037-0.337-0.27-0.348c-0.239-0.012-0.36,0.094-0.408,0.351c-0.195,1.035-0.392,2.071-0.588,3.106
			c-0.05,0.261,0.017,0.358,0.284,0.363c0.471,0.007,0.94,0.006,1.412,0c0.086,0,0.178-0.018,0.255-0.056
			c0.115-0.061,0.224-0.155,0.171-0.302c-0.054-0.148-0.182-0.092-0.294-0.07C77.422,90.959,77.072,90.962,76.683,90.9z"/>
		<path class="st0" d="M64.994,87.72c0.014-0.105-0.067-0.19-0.21-0.224c-0.207-0.048-0.446,0.041-0.499,0.38
			c-0.093,0.628-0.222,1.252-0.343,1.876c-0.077,0.401-0.168,0.797-0.246,1.195c-0.053,0.27,0.055,0.387,0.324,0.366
			c0.227-0.016,0.321-0.097,0.369-0.355c0.126-0.676,0.242-1.353,0.368-2.028C64.829,88.544,64.909,88.155,64.994,87.72z"/>
		<path class="st0" d="M39.254,87.486c-0.205,0-0.326,0.091-0.372,0.308c-0.043,0.197-0.063,0.401-0.101,0.603
			c-0.165,0.835-0.334,1.67-0.501,2.506c-0.027,0.136-0.079,0.29,0.086,0.373c0.159,0.08,0.331,0.068,0.466-0.048
			c0.067-0.059,0.112-0.169,0.129-0.262c0.2-1.037,0.393-2.074,0.586-3.113C39.591,87.612,39.49,87.485,39.254,87.486z"/>
		<path class="st0" d="M38.99,87.175c0.302,0.022,0.522-0.108,0.719-0.296c0.141-0.136,0.158-0.28,0.058-0.359
			c-0.102-0.084-0.32-0.052-0.403,0.072C39.237,86.775,39.123,86.965,38.99,87.175z"/>
		<path class="st1" d="M31.965,80.704c0.461-0.985,0.896-1.907,1.326-2.83c1.743-3.728,3.486-7.458,5.231-11.185
			c0.054-0.113,0.106-0.234,0.188-0.329c0.133-0.159,0.319-0.129,0.387,0.064c0.053,0.155,0.075,0.322,0.092,0.486
			c0.175,1.557,0.346,3.115,0.516,4.674c0.165,1.507,0.319,3.016,0.487,4.523c0.195,1.76,0.396,3.52,0.604,5.278
			c0.047,0.395,0.172,0.769,0.393,1.108c0.193,0.301,0.458,0.51,0.807,0.604c0.672,0.185,1.354,0.22,2.046,0.13
			c0.572-0.074,1.008-0.363,1.301-0.842c0.204-0.336,0.382-0.695,0.517-1.063c1.252-3.395,2.491-6.794,3.734-10.193
			c0.512-1.397,1.022-2.799,1.538-4.197c0.064-0.179,0.138-0.358,0.232-0.521c0.12-0.207,0.287-0.207,0.407,0.003
			c0.114,0.197,0.2,0.411,0.285,0.625c0.97,2.521,1.933,5.045,2.906,7.564c0.784,2.031,1.566,4.064,2.378,6.086
			c0.222,0.554,0.521,1.077,0.825,1.591c0.398,0.67,1.038,0.95,1.797,0.991c0.13,0.008,0.259,0.035,0.401,0.055
			c-0.043,0.26-0.208,0.259-0.354,0.261c-0.422,0.007-0.842,0.008-1.264,0.003c-0.866-0.013-1.733-0.03-2.6-0.052
			c-0.145-0.004-0.288-0.045-0.476-0.074c0.06-0.103,0.075-0.162,0.116-0.199c0.275-0.247,0.302-0.311,0.181-0.654
			c-0.15-0.42-0.311-0.835-0.468-1.252c-0.507-1.35-1.014-2.696-1.522-4.042c-0.146-0.382-0.147-0.384-0.546-0.384
			c-1.429-0.001-2.855-0.001-4.285,0c-0.431,0-0.437,0.006-0.572,0.404c-0.441,1.304-0.892,2.604-1.318,3.911
			c-0.122,0.372-0.207,0.764-0.254,1.153c-0.065,0.566,0.21,0.847,0.789,0.869c0.114,0.006,0.23-0.002,0.343,0.016
			c0.053,0.008,0.099,0.066,0.144,0.097c-0.041,0.209-0.197,0.2-0.332,0.203c-0.279,0.004-0.561-0.009-0.84-0.009
			c-0.931,0.002-1.861,0.004-2.79,0.01c-1.733,0.01-3.467-0.01-5.196-0.147c-0.247-0.02-0.246-0.031-0.438-0.185
			c0.01-0.032,0.011-0.086,0.034-0.098c0.25-0.133,0.255-0.362,0.234-0.597c-0.053-0.61-0.114-1.218-0.172-1.827
			c-0.116-1.256-0.232-2.512-0.349-3.769c-0.143-1.549-0.284-3.096-0.425-4.646c-0.04-0.432-0.075-0.863-0.117-1.294
			c-0.008-0.095-0.032-0.188-0.067-0.376c-0.103,0.196-0.162,0.304-0.216,0.414c-1.829,3.884-3.66,7.769-5.491,11.653
			c-0.064,0.138-0.13,0.276-0.202,0.41c-0.09,0.165-0.142,0.401-0.359,0.411c-0.24,0.011-0.309-0.236-0.403-0.409
			c-0.24-0.435-0.468-0.876-0.698-1.317c-1.795-3.464-3.454-6.99-5.061-10.544c-0.046-0.102-0.099-0.2-0.177-0.358
			c-0.042,0.119-0.076,0.182-0.084,0.245c-0.163,1.892-0.323,3.785-0.486,5.676c-0.137,1.6-0.278,3.199-0.414,4.799
			c-0.022,0.268-0.036,0.536-0.025,0.803c0.018,0.463,0.201,0.674,0.652,0.759c0.251,0.046,0.507,0.049,0.758,0.089
			c0.074,0.011,0.186,0.071,0.197,0.125c0.027,0.126-0.086,0.173-0.194,0.178c-0.14,0.009-0.28,0.008-0.42,0.008
			c-1.185,0-2.369,0.001-3.554-0.001c-0.152,0-0.308-0.007-0.456-0.033c-0.044-0.007-0.105-0.085-0.105-0.13
			c0-0.046,0.059-0.112,0.108-0.131c0.068-0.026,0.15-0.016,0.226-0.023c0.141-0.015,0.278-0.03,0.417-0.046
			c0.469-0.051,0.746-0.329,0.837-0.769c0.097-0.473,0.166-0.954,0.221-1.433c0.178-1.532,0.344-3.065,0.515-4.598
			c0.16-1.456,0.32-2.912,0.483-4.37c0.17-1.544,0.341-3.089,0.514-4.635c0.028-0.267,0.056-0.532,0.093-0.798
			c0.011-0.086,0.037-0.176,0.08-0.25c0.081-0.14,0.211-0.154,0.32-0.051c0.088,0.085,0.153,0.202,0.207,0.315
			c2.23,4.583,4.457,9.169,6.684,13.751C31.827,80.482,31.884,80.564,31.965,80.704z M53.486,76.092
			c-0.015-0.098-0.017-0.136-0.029-0.172c-0.703-2.006-1.406-4.012-2.112-6.019c-0.029-0.081-0.099-0.15-0.151-0.226
			c-0.029,0.004-0.059,0.006-0.088,0.009c-0.692,2.122-1.384,4.242-2.09,6.407C50.54,76.092,51.999,76.092,53.486,76.092z"/>
		<path class="st1" d="M77.177,83.718c-0.242,0.054-0.366-0.069-0.485-0.179c-0.267-0.236-0.528-0.482-0.781-0.734
			c-4.092-4.076-8.008-8.318-11.854-12.628c-0.091-0.103-0.187-0.203-0.352-0.381c-0.004,0.215-0.012,0.345-0.009,0.474
			c0.05,1.86,0.1,3.72,0.152,5.579c0.049,1.721,0.094,3.438,0.156,5.157c0.015,0.406,0.068,0.814,0.146,1.213
			c0.125,0.645,0.4,0.891,1.045,0.983c0.253,0.036,0.508,0.04,0.76,0.078c0.069,0.01,0.125,0.089,0.188,0.138
			c-0.062,0.054-0.112,0.132-0.184,0.155c-0.093,0.029-0.2,0.02-0.304,0.018c-0.661-0.016-1.323-0.047-1.987-0.046
			c-0.776,0.001-1.554,0.03-2.331,0.046c-0.101,0.002-0.209,0.014-0.303-0.016c-0.07-0.021-0.122-0.102-0.182-0.154
			c0.063-0.049,0.119-0.128,0.188-0.14c0.225-0.041,0.455-0.053,0.682-0.086c0.413-0.061,0.683-0.292,0.741-0.709
			c0.067-0.491,0.135-0.986,0.14-1.48c0.018-1.53,0.004-3.06,0.008-4.591c0.002-1.899,0.005-3.799,0.013-5.699
			c0.004-0.956,0.015-1.912,0.025-2.869c0.003-0.368,0.007-0.735,0.015-1.105c0.003-0.088,0.013-0.179,0.037-0.266
			c0.063-0.234,0.189-0.275,0.392-0.122c0.091,0.068,0.172,0.151,0.25,0.235c4.168,4.513,8.335,9.028,12.503,13.54
			c0.101,0.11,0.223,0.202,0.373,0.339c0-0.122,0.004-0.216,0-0.311c-0.041-1.745-0.086-3.49-0.125-5.235
			c-0.021-0.995-0.03-1.988-0.054-2.982c-0.03-1.222-0.07-2.444-0.106-3.667c-0.001-0.051-0.004-0.103-0.012-0.153
			c-0.121-0.815-0.384-1.083-1.112-1.176c-0.215-0.027-0.432-0.039-0.646-0.061c-0.076-0.008-0.16-0.005-0.224-0.036
			c-0.045-0.022-0.08-0.094-0.086-0.148c-0.003-0.03,0.058-0.087,0.097-0.096c0.086-0.022,0.177-0.026,0.266-0.025
			c0.751,0.014,1.503,0.043,2.255,0.044c0.649,0.001,1.3-0.029,1.949-0.045c0.102-0.001,0.208-0.014,0.305,0.009
			c0.071,0.019,0.128,0.089,0.191,0.135c-0.062,0.052-0.114,0.133-0.185,0.154c-0.159,0.043-0.324,0.063-0.49,0.082
			c-0.63,0.074-0.783,0.389-0.854,0.902c-0.046,0.327-0.067,0.66-0.068,0.991c-0.009,2.281-0.013,4.564-0.016,6.848
			c-0.005,2.295-0.006,4.59-0.017,6.885C77.285,82.96,77.297,83.344,77.177,83.718z"/>
		<path class="st1" d="M3.859,74.956c-0.008,0.17-0.02,0.307-0.02,0.444c-0.002,1.734-0.004,3.47,0.001,5.203
			c0.002,0.305,0.029,0.61,0.069,0.913c0.095,0.724,0.426,1.07,1.167,1.139c0.657,0.06,1.323,0.073,1.984,0.063
			c0.417-0.004,0.838-0.069,1.249-0.146c0.574-0.105,0.957-0.455,1.126-1.021c0.065-0.22,0.112-0.443,0.171-0.666
			c0.027-0.098,0.055-0.196,0.1-0.285c0.016-0.035,0.084-0.065,0.125-0.06c0.04,0.006,0.098,0.053,0.106,0.091
			c0.019,0.097,0.031,0.204,0.019,0.303c-0.09,0.707-0.166,1.417-0.289,2.118c-0.084,0.478-0.255,0.602-0.739,0.601
			c-1.096-0.003-2.193-0.019-3.288-0.04c-0.816-0.016-1.632-0.063-2.446-0.067s-1.63,0.033-2.444,0.043
			c-0.141,0.001-0.283-0.044-0.423-0.066c-0.005-0.029-0.012-0.058-0.017-0.087c0.062-0.049,0.115-0.117,0.187-0.144
			c0.08-0.03,0.175-0.023,0.264-0.032c0.655-0.079,0.902-0.281,1.006-0.945c0.083-0.527,0.137-1.063,0.139-1.597
			c0.021-3.521,0.029-7.04,0.029-10.56c0-0.726-0.024-1.454-0.077-2.177c-0.047-0.628-0.296-0.883-0.903-1.015
			c-0.186-0.039-0.378-0.043-0.566-0.073C0.255,66.873,0.126,66.838,0,66.808c0.018-0.263,0.182-0.229,0.312-0.229
			c0.588,0,1.174,0.008,1.761,0.012c1.861,0.014,3.724,0.035,5.583,0.029c0.567-0.001,1.146,0.013,1.742-0.278
			c0.004,0.18,0.035,0.307,0.006,0.415c-0.171,0.621-0.176,1.261-0.219,1.895c-0.011,0.165-0.019,0.334-0.061,0.491
			c-0.021,0.083-0.104,0.199-0.171,0.209c-0.159,0.021-0.158-0.132-0.172-0.241c-0.019-0.139-0.022-0.279-0.037-0.418
			c-0.062-0.56-0.36-0.919-0.915-1.034c-0.323-0.067-0.651-0.13-0.98-0.145c-0.865-0.038-1.732-0.049-2.599-0.069
			c-0.36-0.008-0.409,0.031-0.41,0.38c-0.004,1.964-0.002,3.929,0,5.894c0,0.11,0.025,0.221,0.039,0.321
			c0.063,0.023,0.099,0.043,0.134,0.043c1.236-0.017,2.473-0.035,3.709-0.058c0.411-0.006,0.782-0.11,1.042-0.464
			c0.028-0.038,0.076-0.066,0.121-0.087c0.032-0.014,0.072-0.002,0.131-0.002c0.013,0.063,0.04,0.124,0.035,0.182
			c-0.088,0.964-0.177,1.927-0.271,2.889c-0.008,0.069-0.061,0.135-0.09,0.192c-0.168,0.042-0.194-0.073-0.207-0.171
			c-0.025-0.175-0.03-0.354-0.048-0.532c-0.056-0.484-0.319-0.794-0.792-0.92c-0.16-0.041-0.324-0.084-0.488-0.09
			c-1.005-0.04-2.012-0.07-3.018-0.102C4.062,74.919,3.985,74.939,3.859,74.956z"/>
		<path class="st1" d="M6.227,88.435c-0.065,0.103-0.136,0.203-0.197,0.31c-0.394,0.683-0.788,1.367-1.182,2.052
			c-0.033,0.055-0.058,0.135-0.105,0.155c-0.11,0.047-0.234,0.096-0.351,0.089c-0.131-0.007-0.16-0.135-0.181-0.256
			c-0.096-0.564-0.198-1.127-0.303-1.69c-0.031-0.184-0.074-0.364-0.185-0.549c-0.062,0.288-0.129,0.576-0.184,0.866
			c-0.097,0.499-0.183,1.001-0.277,1.503c-0.051,0.265-0.139,0.359-0.346,0.389c-0.268,0.039-0.377-0.081-0.311-0.347
			c0.136-0.529,0.289-1.057,0.408-1.591c0.11-0.495,0.189-0.998,0.272-1.5c0.046-0.274,0.113-0.349,0.388-0.369
			c0.065-0.005,0.129-0.004,0.191-0.001c0.344,0.019,0.44,0.111,0.495,0.458c0.105,0.678,0.216,1.355,0.333,2.095
			c0.087-0.106,0.147-0.164,0.187-0.233c0.375-0.649,0.747-1.303,1.12-1.954c0.182-0.318,0.586-0.471,0.922-0.344
			c0.177,0.064,0.16,0.197,0.131,0.346c-0.118,0.56-0.235,1.12-0.34,1.683c-0.085,0.463-0.148,0.931-0.226,1.396
			c-0.044,0.281-0.164,0.378-0.433,0.367c-0.238-0.01-0.31-0.1-0.26-0.345c0.097-0.5,0.2-0.998,0.299-1.498
			c0.064-0.334,0.128-0.67,0.191-1.007C6.266,88.452,6.245,88.443,6.227,88.435z"/>
		<path class="st1" d="M69.979,88.384c-0.13,0.852-0.26,1.705-0.391,2.557c-0.037,0.238-0.123,0.333-0.318,0.359
			c-0.25,0.034-0.373-0.104-0.322-0.355c0.17-0.822,0.34-1.645,0.504-2.467c0.031-0.162,0.045-0.327,0.057-0.492
			c0.025-0.345,0.086-0.446,0.311-0.493c0.313-0.067,0.569,0.05,0.691,0.327c0.301,0.688,0.597,1.376,0.896,2.064
			c0.044,0.1,0.092,0.199,0.205,0.295c0.059-0.342,0.118-0.683,0.179-1.022c0.076-0.439,0.144-0.879,0.236-1.315
			c0.021-0.109,0.101-0.247,0.193-0.294c0.092-0.045,0.246-0.021,0.347,0.028c0.049,0.024,0.061,0.182,0.043,0.269
			c-0.203,1.022-0.419,2.043-0.627,3.063c-0.035,0.177-0.045,0.363-0.279,0.401c-0.221,0.034-0.377-0.065-0.492-0.326
			c-0.348-0.792-0.693-1.586-1.04-2.378c-0.034-0.08-0.074-0.155-0.11-0.233C70.034,88.376,70.007,88.38,69.979,88.384z"/>
		<path class="st1" d="M54.681,88.38c-0.086,0.535-0.174,1.069-0.256,1.604c-0.053,0.328-0.094,0.656-0.144,0.983
			c-0.035,0.22-0.144,0.322-0.344,0.338c-0.231,0.016-0.347-0.118-0.298-0.349c0.145-0.685,0.3-1.367,0.435-2.053
			c0.063-0.312,0.096-0.628,0.127-0.945c0.033-0.325,0.098-0.43,0.338-0.469c0.312-0.053,0.546,0.056,0.661,0.317
			c0.195,0.442,0.384,0.889,0.576,1.331c0.15,0.348,0.303,0.695,0.518,1.046c0.033-0.163,0.073-0.325,0.103-0.489
			c0.107-0.614,0.216-1.228,0.313-1.845c0.026-0.167,0.093-0.286,0.257-0.337c0.193-0.063,0.414,0.046,0.351,0.323
			c-0.225,1.018-0.43,2.039-0.638,3.06c-0.066,0.318-0.113,0.395-0.309,0.414c-0.22,0.021-0.357-0.08-0.478-0.354
			c-0.356-0.815-0.714-1.631-1.072-2.446c-0.021-0.045-0.041-0.089-0.063-0.133C54.733,88.379,54.707,88.38,54.681,88.38z"/>
		<path class="st1" d="M13.177,76.983c0.008-0.12,0.002-0.224,0.024-0.318c0.077-0.335,0.177-0.664,0.245-1.001
			c0.045-0.216,0.167-0.301,0.369-0.306c0.102-0.002,0.205-0.006,0.307-0.006c1.501,0,3.002,0,4.504,0.002
			c0.19,0.001,0.382,0.015,0.569,0.043c0.059,0.009,0.144,0.083,0.151,0.135c0.005,0.057-0.054,0.149-0.109,0.175
			c-0.136,0.065-0.283,0.116-0.432,0.143c-0.962,0.179-1.93,0.33-2.887,0.529c-0.783,0.164-1.553,0.385-2.33,0.58
			c-0.085,0.021-0.171,0.048-0.258,0.063C13.299,77.026,13.261,77.005,13.177,76.983z"/>
		<path class="st1" d="M20.979,87.493c0.229,0,0.461-0.019,0.688,0.003c0.749,0.072,1.201,0.527,1.204,1.276
			c0.003,0.675-0.188,1.311-0.635,1.842c-0.362,0.429-0.836,0.662-1.396,0.692c-0.394,0.019-0.79,0.01-1.184,0.001
			c-0.268-0.007-0.322-0.094-0.266-0.372c0.131-0.637,0.267-1.268,0.387-1.907c0.071-0.375,0.122-0.752,0.167-1.131
			c0.041-0.34,0.108-0.406,0.462-0.404C20.598,87.494,20.788,87.493,20.979,87.493z M20.673,87.867
			c-0.091,0.457-0.178,0.893-0.262,1.328c-0.092,0.475-0.193,0.947-0.269,1.425c-0.047,0.299,0.023,0.363,0.32,0.382
			c0.628,0.04,1.101-0.218,1.367-0.774c0.193-0.405,0.301-0.832,0.315-1.288c0.024-0.761-0.33-1.107-1.117-1.11
			C20.927,87.829,20.828,87.848,20.673,87.867z"/>
		<path class="st1" d="M42.79,89.737c0.024-0.709,0.357-1.424,1.073-1.931c0.554-0.393,1.175-0.475,1.82-0.289
			c0.524,0.149,0.81,0.535,0.837,1.066c0.046,0.939-0.259,1.76-0.983,2.38c-0.612,0.521-1.526,0.56-2.215,0.131
			C42.977,90.88,42.788,90.452,42.79,89.737z M43.539,89.94c0.006,0.086,0.004,0.215,0.02,0.341c0.07,0.542,0.459,0.825,0.998,0.734
			c0.371-0.061,0.622-0.284,0.813-0.583c0.373-0.595,0.502-1.249,0.42-1.94c-0.063-0.513-0.394-0.758-0.907-0.694
			c-0.424,0.051-0.726,0.296-0.942,0.647C43.665,88.889,43.544,89.378,43.539,89.94z"/>
		<path class="st1" d="M65.15,89.795c0.028-0.46,0.173-0.979,0.498-1.441c0.532-0.754,1.396-1.08,2.285-0.862
			c0.587,0.145,0.956,0.616,0.93,1.279c-0.031,0.787-0.274,1.507-0.857,2.066c-0.557,0.532-1.218,0.67-1.947,0.45
			C65.462,91.106,65.144,90.599,65.15,89.795z M68.126,88.871c0-0.115,0.01-0.23-0.002-0.344c-0.053-0.526-0.388-0.793-0.916-0.729
			c-0.38,0.045-0.671,0.246-0.877,0.555c-0.416,0.62-0.549,1.312-0.42,2.041c0.074,0.427,0.428,0.674,0.862,0.64
			c0.4-0.031,0.688-0.249,0.902-0.57C67.997,89.982,68.124,89.443,68.126,88.871z"/>
		<path class="st1" d="M24.657,91.384c-0.985,0.006-1.58-0.61-1.519-1.594c0.033-0.517,0.188-0.999,0.489-1.429
			c0.529-0.756,1.383-1.085,2.279-0.872c0.59,0.14,0.963,0.605,0.94,1.27c-0.023,0.786-0.273,1.501-0.848,2.07
			C25.634,91.195,25.169,91.381,24.657,91.384z M26.109,88.845c0-0.115,0.01-0.231-0.002-0.344
			c-0.059-0.491-0.368-0.746-0.864-0.708c-0.41,0.03-0.723,0.244-0.941,0.579c-0.402,0.611-0.53,1.291-0.409,2.009
			c0.076,0.446,0.439,0.691,0.89,0.648c0.388-0.036,0.664-0.25,0.871-0.557C25.985,89.982,26.115,89.432,26.109,88.845z"/>
		<path class="st1" d="M11.856,89.646c-0.001,0.34,0.113,0.608,0.263,0.861c0.144,0.244,0.311,0.475,0.477,0.72
			c-0.431,0.151-0.709,0.087-0.889-0.241c-0.212-0.387-0.38-0.802-0.586-1.245c-0.062,0-0.182,0-0.337,0
			c-0.068,0.386-0.133,0.771-0.205,1.155c-0.015,0.086-0.032,0.177-0.073,0.253c-0.085,0.151-0.302,0.214-0.47,0.151
			c-0.191-0.072-0.176-0.223-0.144-0.381c0.139-0.687,0.277-1.371,0.41-2.059c0.067-0.35,0.128-0.7,0.182-1.054
			c0.028-0.174,0.127-0.3,0.294-0.3c0.507,0,1.021-0.018,1.521,0.052c0.46,0.063,0.717,0.521,0.625,0.978
			c-0.088,0.438-0.335,0.765-0.736,0.967C12.085,89.554,11.979,89.593,11.856,89.646z M10.862,89.288
			c0.442,0.067,0.663,0.046,0.894-0.074c0.343-0.179,0.542-0.647,0.43-1.009c-0.087-0.283-0.341-0.399-0.792-0.355
			c-0.084,0.009-0.166,0.036-0.262,0.058C11.041,88.37,10.955,88.817,10.862,89.288z"/>
		<path class="st1" d="M37.829,91.213c-0.42,0.171-0.725,0.104-0.902-0.219c-0.213-0.388-0.38-0.798-0.595-1.261
			c-0.044-0.004-0.163-0.013-0.325-0.022c-0.062,0.351-0.12,0.685-0.181,1.02c-0.021,0.113-0.034,0.227-0.066,0.335
			c-0.049,0.165-0.171,0.244-0.342,0.252c-0.257,0.014-0.365-0.114-0.314-0.375c0.176-0.896,0.352-1.796,0.524-2.692
			c0.026-0.138,0.041-0.277,0.063-0.414c0.031-0.202,0.142-0.333,0.352-0.336c0.419-0.006,0.843-0.033,1.258,0.007
			c0.719,0.067,1.04,0.667,0.746,1.329c-0.141,0.316-0.372,0.543-0.684,0.689c-0.09,0.041-0.187,0.074-0.296,0.119
			C37.085,90.269,37.464,90.721,37.829,91.213z M36.076,89.311c0.238,0,0.431,0.023,0.615-0.007
			c0.468-0.076,0.779-0.493,0.739-0.959c-0.021-0.264-0.151-0.436-0.414-0.474c-0.206-0.03-0.422-0.005-0.659-0.005
			C36.263,88.355,36.172,88.815,36.076,89.311z"/>
		<path class="st1" d="M18.142,90.174c-0.377,0-0.73,0.003-1.084-0.001c-0.143-0.003-0.197,0.089-0.246,0.196
			c-0.095,0.209-0.195,0.415-0.289,0.624c-0.078,0.175-0.199,0.305-0.398,0.305c-0.09,0.001-0.203-0.044-0.259-0.106
			c-0.036-0.039-0.005-0.168,0.03-0.235c0.307-0.586,0.626-1.164,0.933-1.75c0.229-0.438,0.454-0.881,0.671-1.328
			c0.104-0.216,0.258-0.343,0.497-0.354c0.343-0.017,0.581,0.025,0.613,0.517c0.056,0.851,0.174,1.696,0.266,2.541
			c0.015,0.127,0.039,0.252,0.044,0.379c0.008,0.24-0.076,0.333-0.3,0.347c-0.235,0.014-0.375-0.085-0.401-0.305
			C18.186,90.741,18.168,90.476,18.142,90.174z M17.114,89.766c0.375,0.009,0.676,0.08,0.992-0.045
			c-0.045-0.485-0.09-0.959-0.133-1.433c-0.029-0.008-0.056-0.017-0.087-0.023C17.618,88.738,17.368,89.218,17.114,89.766z"/>
		<path class="st1" d="M59.378,90.193c-0.427,0-0.816,0-1.248,0c-0.129,0.271-0.255,0.559-0.4,0.839
			c-0.16,0.31-0.395,0.35-0.682,0.119c0.012-0.04,0.021-0.09,0.042-0.133c0.541-1.037,1.091-2.069,1.62-3.112
			c0.15-0.296,0.366-0.404,0.675-0.383c0.307,0.02,0.399,0.103,0.433,0.416c0.065,0.58,0.123,1.162,0.186,1.743
			c0.042,0.38,0.089,0.758,0.136,1.138c0.042,0.333-0.023,0.463-0.262,0.485c-0.267,0.024-0.455-0.091-0.451-0.425
			C59.431,90.666,59.397,90.451,59.378,90.193z M59.201,88.284c-0.034-0.001-0.071-0.001-0.104-0.002
			c-0.248,0.479-0.493,0.958-0.769,1.496c0.378-0.012,0.688,0.073,1.014-0.055C59.294,89.234,59.248,88.757,59.201,88.284z"/>
		<path class="st1" d="M72.335,91.143c0.196-0.365,0.387-0.709,0.568-1.058c0.375-0.722,0.75-1.445,1.11-2.175
			c0.136-0.275,0.333-0.402,0.633-0.39c0.343,0.011,0.44,0.096,0.481,0.448c0.109,0.973,0.219,1.944,0.325,2.92
			c0.032,0.272-0.044,0.387-0.263,0.417c-0.257,0.033-0.412-0.079-0.444-0.344c-0.03-0.249-0.043-0.5-0.065-0.768
			c-0.418,0-0.809,0-1.244,0c-0.128,0.264-0.255,0.551-0.398,0.831C72.877,91.339,72.652,91.381,72.335,91.143z M74.499,88.225
			c-0.3,0.383-0.737,1.249-0.788,1.536c0.301,0,0.599,0,0.938,0C74.598,89.245,74.552,88.764,74.499,88.225z"/>
		<path class="st1" d="M30.315,90.173c-0.414,0.011-0.805,0.023-1.244,0.034c-0.117,0.266-0.237,0.557-0.373,0.839
			c-0.153,0.319-0.371,0.369-0.684,0.154c0.017-0.052,0.026-0.113,0.052-0.168c0.507-1.041,1.015-2.08,1.522-3.119
			c0.164-0.336,0.336-0.435,0.693-0.413c0.282,0.021,0.372,0.103,0.414,0.396c0.081,0.578,0.154,1.158,0.233,1.737
			c0.057,0.404,0.121,0.806,0.178,1.209c0.046,0.336-0.158,0.513-0.477,0.412c-0.155-0.048-0.215-0.163-0.231-0.313
			C30.372,90.692,30.345,90.442,30.315,90.173z M30.083,88.198c-0.324,0.455-0.711,1.287-0.742,1.565
			c0.296-0.008,0.595-0.016,0.929-0.024C30.208,89.231,30.151,88.755,30.083,88.198z"/>
		<path class="st1" d="M51.231,90.184c-0.442,0-0.824,0-1.251,0c-0.12,0.257-0.253,0.528-0.377,0.805
			c-0.08,0.175-0.197,0.307-0.396,0.31c-0.089,0.001-0.202-0.038-0.263-0.102c-0.034-0.038-0.005-0.166,0.03-0.235
			c0.307-0.587,0.625-1.166,0.932-1.752c0.229-0.439,0.457-0.881,0.671-1.328c0.119-0.25,0.305-0.358,0.572-0.36
			c0.383-0.004,0.482,0.098,0.521,0.482c0.094,0.898,0.199,1.793,0.299,2.691c0.008,0.075,0.019,0.152,0.024,0.229
			c0.017,0.255-0.048,0.354-0.256,0.383c-0.259,0.033-0.425-0.084-0.448-0.336C51.263,90.718,51.251,90.466,51.231,90.184z
			 M51.195,89.761c-0.052-0.521-0.102-1.009-0.15-1.497c-0.027-0.003-0.056-0.005-0.084-0.009c-0.251,0.488-0.503,0.976-0.776,1.506
			C50.554,89.761,50.859,89.761,51.195,89.761z"/>
		<path class="st1" d="M33.682,90.944c0.072-0.35,0.148-0.723,0.228-1.094c0.054-0.254,0.184-0.341,0.436-0.308
			c0.213,0.029,0.295,0.123,0.256,0.336c-0.066,0.363-0.15,0.724-0.224,1.085c-0.041,0.2-0.165,0.317-0.361,0.339
			c-0.304,0.035-0.609,0.076-0.914,0.079c-0.923,0.011-1.445-0.465-1.462-1.388c-0.016-0.763,0.215-1.454,0.781-2.007
			c0.65-0.635,1.426-0.659,2.245-0.472c0.191,0.044,0.275,0.205,0.216,0.337c-0.058,0.134-0.207,0.175-0.393,0.104
			c-0.082-0.033-0.16-0.083-0.244-0.109c-0.433-0.132-0.831-0.093-1.164,0.248c-0.587,0.599-0.788,1.325-0.671,2.141
			C32.497,90.827,32.983,91.223,33.682,90.944z"/>
		<path class="st1" d="M9.414,90.918c-0.03,0.313-0.087,0.395-0.326,0.399c-0.561,0.013-1.122,0.01-1.682,0
			c-0.224-0.003-0.27-0.089-0.228-0.323c0.181-1.027,0.361-2.055,0.54-3.082c0.057-0.325,0.145-0.421,0.47-0.427
			c0.457-0.007,0.916-0.003,1.373-0.003c0.027,0,0.053,0.001,0.077,0.001c0.125,0.007,0.249,0.047,0.252,0.183
			c0.002,0.16-0.136,0.202-0.271,0.202c-0.229,0-0.458-0.01-0.688-0.016c-0.151-0.004-0.303-0.001-0.495-0.001
			c-0.082,0.416-0.159,0.808-0.246,1.242c0.223,0,0.413-0.015,0.598,0.006c0.086,0.01,0.214,0.075,0.234,0.141
			c0.038,0.134-0.083,0.212-0.202,0.223c-0.213,0.017-0.429,0.004-0.672,0.004c-0.136,0.428-0.201,0.849-0.251,1.272
			c-0.022,0.189,0.118,0.246,0.27,0.244c0.267-0.001,0.532-0.022,0.799-0.037C9.112,90.938,9.259,90.927,9.414,90.918z"/>
		<path class="st1" d="M15.823,90.902c-0.1,0.322-0.279,0.454-0.497,0.458c-0.404,0.01-0.816,0.014-1.211-0.061
			c-0.462-0.085-0.742-0.413-0.866-0.869c-0.46-1.689,0.932-3.266,2.659-3.006c0.101,0.015,0.216,0.026,0.29,0.082
			c0.066,0.051,0.134,0.174,0.116,0.244c-0.017,0.073-0.126,0.145-0.212,0.174c-0.06,0.021-0.145-0.026-0.217-0.047
			c-0.64-0.186-1.207-0.002-1.575,0.54c-0.385,0.563-0.489,1.198-0.36,1.861c0.098,0.502,0.492,0.775,1.042,0.756
			c0.163-0.007,0.323-0.063,0.484-0.093C15.57,90.926,15.665,90.921,15.823,90.902z"/>
		<path class="st1" d="M42.362,90.9c-0.045,0.332-0.245,0.447-0.48,0.464c-0.326,0.026-0.667,0.047-0.987-0.008
			c-0.798-0.139-1.127-0.61-1.145-1.508c-0.007-0.239,0.043-0.482,0.104-0.715c0.32-1.222,1.395-1.911,2.646-1.708
			c0.088,0.015,0.177,0.032,0.258,0.067c0.112,0.049,0.211,0.146,0.143,0.266c-0.047,0.081-0.166,0.138-0.266,0.165
			c-0.061,0.019-0.144-0.038-0.215-0.059c-0.574-0.163-1.068-0.018-1.441,0.437c-0.478,0.577-0.586,1.266-0.452,1.98
			c0.097,0.508,0.496,0.772,1.045,0.754c0.15-0.006,0.299-0.054,0.449-0.081C42.124,90.937,42.229,90.921,42.362,90.9z"/>
		<path class="st1" d="M63.368,90.934c-0.044,0.299-0.247,0.418-0.477,0.429c-0.365,0.02-0.741,0.028-1.098-0.039
			c-0.613-0.116-0.938-0.511-1.012-1.133c-0.058-0.488,0.007-0.964,0.199-1.419c0.422-1.013,1.569-1.586,2.636-1.321
			c0.05,0.012,0.116,0.01,0.145,0.041c0.062,0.069,0.163,0.177,0.144,0.232c-0.03,0.084-0.138,0.16-0.23,0.199
			c-0.054,0.024-0.142-0.028-0.215-0.05c-0.62-0.181-1.182-0.003-1.55,0.521c-0.366,0.52-0.496,1.114-0.405,1.739
			c0.093,0.652,0.53,0.968,1.189,0.891c0.15-0.017,0.295-0.075,0.444-0.101C63.206,90.91,63.279,90.928,63.368,90.934z"/>
		<path class="st1" d="M47.424,90.902c0.399,0,0.726,0.003,1.053-0.002c0.062,0,0.125-0.041,0.185-0.033
			c0.054,0.006,0.127,0.04,0.15,0.085c0.021,0.046,0.012,0.141-0.023,0.171c-0.093,0.077-0.203,0.181-0.312,0.185
			c-0.521,0.018-1.043,0.017-1.564,0.004c-0.212-0.005-0.266-0.108-0.22-0.344c0.167-0.861,0.335-1.723,0.5-2.584
			c0.038-0.198,0.055-0.402,0.101-0.601c0.056-0.245,0.309-0.364,0.535-0.262c0.138,0.062,0.165,0.163,0.136,0.313
			c-0.165,0.823-0.323,1.647-0.476,2.472C47.454,90.487,47.447,90.676,47.424,90.902z"/>
		<path class="st1" d="M76.683,90.9c0.39,0.062,0.739,0.059,1.09-0.011c0.112-0.021,0.24-0.078,0.294,0.07
			c0.053,0.146-0.056,0.241-0.171,0.302c-0.077,0.038-0.169,0.056-0.255,0.056c-0.472,0.006-0.941,0.007-1.412,0
			c-0.268-0.005-0.334-0.103-0.284-0.363c0.196-1.035,0.393-2.071,0.588-3.106c0.048-0.257,0.169-0.362,0.408-0.351
			c0.232,0.011,0.314,0.113,0.27,0.348c-0.159,0.85-0.325,1.697-0.482,2.546C76.698,90.548,76.699,90.711,76.683,90.9z"/>
		<path class="st1" d="M64.994,87.72c-0.085,0.435-0.165,0.823-0.236,1.21c-0.126,0.676-0.242,1.353-0.368,2.028
			c-0.048,0.259-0.143,0.34-0.369,0.355c-0.27,0.021-0.377-0.097-0.324-0.366c0.078-0.398,0.169-0.794,0.246-1.195
			c0.121-0.624,0.25-1.248,0.343-1.876c0.053-0.339,0.292-0.428,0.499-0.38C64.927,87.53,65.008,87.615,64.994,87.72z"/>
		<path class="st1" d="M39.254,87.486c0.236-0.001,0.337,0.126,0.293,0.366c-0.193,1.039-0.386,2.076-0.586,3.113
			c-0.017,0.093-0.061,0.203-0.129,0.262c-0.135,0.116-0.307,0.128-0.466,0.048c-0.165-0.083-0.113-0.237-0.086-0.373
			c0.167-0.836,0.336-1.671,0.501-2.506c0.038-0.201,0.058-0.405,0.101-0.603C38.928,87.577,39.049,87.486,39.254,87.486z"/>
		<path class="st1" d="M38.99,87.175c0.133-0.21,0.247-0.4,0.373-0.583c0.083-0.124,0.302-0.156,0.403-0.072
			c0.101,0.079,0.083,0.224-0.058,0.359C39.513,87.067,39.292,87.198,38.99,87.175z"/>
	</g>
	<g>
		<path class="st2" d="M19.144,13.198c1.428,1.2,2.855,2.399,4.284,3.597c0.133,0.111,0.272,0.216,0.437,0.346
			c0.677-1.182,1.326-2.317,1.989-3.479c-1.842-1.542-3.649-3.056-5.502-4.608c-0.403,0.771-0.773,1.469-1.137,2.17
			c-0.153,0.294-0.307,0.589-0.441,0.893c-0.169,0.377-0.103,0.651,0.197,0.928C19.028,13.098,19.084,13.149,19.144,13.198z"/>
		<path class="st2" d="M64.342,24.592c-0.152-0.632-0.305-1.264-0.468-1.894c-0.122-0.467-0.261-0.93-0.41-1.458
			c-0.152,0.106-0.249,0.166-0.336,0.236c-0.954,0.771-1.908,1.54-2.859,2.313c-0.476,0.388-0.947,0.777-1.414,1.176
			c-0.304,0.258-0.428,0.571-0.33,0.989c0.262,1.117,0.49,2.242,0.737,3.362c0.021,0.094,0.066,0.182,0.109,0.296
			c0.1-0.07,0.174-0.117,0.242-0.17c0.563-0.444,1.126-0.884,1.681-1.334c0.854-0.691,1.705-1.385,2.552-2.085
			C64.297,25.651,64.481,25.173,64.342,24.592z"/>
		<path class="st2" d="M56.536,24.927c-0.526-1.708-1.058-3.414-1.59-5.119c-0.025-0.08-0.077-0.153-0.11-0.218
			c-0.052,0.002-0.082-0.005-0.099,0.006c-0.77,0.433-1.539,0.866-2.217,1.437c-0.513,0.432-0.781,0.972-0.703,1.653
			c0.025,0.215,0.063,0.432,0.125,0.638c0.321,1.05,0.651,2.096,0.976,3.144c0.81,2.605,1.275,5.254,1.046,7.997
			c-0.101,1.202-0.308,2.38-0.658,3.53c-1.002,3.283-2.818,6.076-5.189,8.527c-1.444,1.495-3.053,2.797-4.813,3.9
			c-0.194,0.121-0.39,0.24-0.585,0.36c4.989-3.921,7.751-8.688,8.373-14.434c0.229-0.187,0.458-0.374,0.689-0.561
			c0.45-0.363,0.676-0.795,0.666-1.384c-0.019-1.303-0.004-2.606-0.005-3.911c0-0.084-0.013-0.167-0.025-0.32
			c-0.438,0.352-0.875,0.703-1.313,1.056c-0.257-2.766-0.921-5.747-2.018-9.008c1.74-1.469,3.484-2.937,5.224-4.408
			c1.64-1.386,3.276-2.774,4.913-4.165c0.481-0.41,0.571-0.837,0.276-1.393c-0.449-0.846-0.916-1.683-1.38-2.521
			c-0.041-0.073-0.109-0.131-0.175-0.21c-0.099,0.075-0.179,0.134-0.256,0.197c-2.675,2.26-5.348,4.521-8.025,6.777
			c-0.69,0.582-1.382,1.16-2.072,1.74c-0.972-2.356-2.144-4.852-3.523-7.507c0.235,0.285,0.473,0.571,0.709,0.857
			c1.08,1.312,2.151,2.631,3.229,3.946c0.079,0.096,0.169,0.181,0.27,0.287c0.963-0.823,1.898-1.623,2.84-2.427
			C47.802,8.374,43.9,3.941,39.392,0c-0.105,0.085-0.17,0.128-0.225,0.181c-1.391,1.355-2.812,2.684-4.164,4.076
			c-3.318,3.414-6.191,7.174-8.573,11.303c-1.414,2.45-2.632,4.994-3.607,7.65c-0.139,0.376-0.171,0.793-0.232,1.193
			c-0.033,0.2,0.06,0.369,0.199,0.517c0.834,0.889,1.826,1.59,2.794,2.396c0.066-0.167,0.119-0.292,0.164-0.419
			c1.127-3.269,2.542-6.409,4.26-9.411c1.151-2.013,3.242-4.812,5.157-7.236c-1.496,2.85-2.758,5.518-3.791,8.026
			c-0.065-0.045-0.134-0.09-0.21-0.142c-0.123,0.216-0.232,0.388-0.327,0.567c-0.365,0.688-0.75,1.365-1.079,2.07
			c-0.225,0.48-0.147,0.978,0.165,1.373c-1.079,3.189-1.744,6.11-2.021,8.825c-4.134-3.41-8.268-6.817-12.406-10.226
			c-0.051,0.097-0.084,0.138-0.096,0.186c-0.259,0.88-0.517,1.762-0.771,2.643c-0.223,0.764-0.061,1.442,0.48,2.021
			c0.191,0.204,0.406,0.389,0.624,0.565c1.203,0.971,2.422,1.924,3.614,2.907c2.844,2.34,5.677,4.692,8.517,7.038
			c0.578,5.979,3.453,10.903,8.713,14.927c-0.328-0.211-0.655-0.422-0.982-0.633c-2.229-1.448-4.275-3.113-6.026-5.125
			c-1.331-1.534-2.434-3.216-3.238-5.089c-0.533-1.235-0.911-2.519-1.176-3.837c-0.089-0.453-0.307-0.833-0.668-1.13
			c-0.334-0.276-0.658-0.567-0.992-0.845c-0.739-0.609-1.481-1.214-2.211-1.811c-0.467,0.112-0.459,0.111-0.41,0.556
			c0.066,0.597,0.102,1.195,0.178,1.791c0.125,0.987,0.211,1.983,0.42,2.952c0.651,3.04,1.943,5.801,3.779,8.308
			c1.49,2.034,3.26,3.799,5.203,5.393c1.216,0.998,2.476,1.936,3.866,2.683c0.506,0.274,0.993,0.584,1.465,0.908
			c0.911,0.625,1.463,1.48,1.597,2.59c0.1,0.845,0.022,1.684-0.03,2.524c-0.046,0.7-0.104,1.401-0.107,2.101
			c-0.003,0.661,0.362,1.014,1.021,1.043c0.611,0.028,1.225,0.049,1.838,0.052c1.005,0.006,1.395-0.396,1.385-1.393
			c-0.01-0.92-0.008-1.841-0.012-2.761c-0.003-0.563,0.009-1.127-0.021-1.687c-0.04-0.77,0.182-1.409,0.823-1.87
			c0.155-0.11,0.317-0.214,0.483-0.309c1.739-1.002,3.435-2.071,5.011-3.321c2.123-1.68,4.063-3.543,5.705-5.704
			c2.534-3.336,4.063-7.072,4.393-11.26c0.135-1.694,0.086-3.396-0.152-5.086C57.47,28.321,57.056,26.612,56.536,24.927z
			 M48.892,22.386c1.092,3.271,1.748,6.255,1.99,9.022c-1.35,1.087-2.699,2.171-4.045,3.255c0.051-1.312,0.041-2.666-0.035-4.064
			c-0.105-1.884-0.338-3.85-0.687-5.871c0.075-0.063,0.151-0.126,0.227-0.19C47.191,23.822,48.042,23.103,48.892,22.386z
			 M46.591,34.86c-2.352,1.893-4.702,3.785-7.068,5.686c-2.423-1.996-4.843-3.991-7.26-5.984c-0.048-1.274-0.036-2.592,0.04-3.949
			c0.103-1.878,0.334-3.837,0.682-5.85c2.101,1.763,4.202,3.526,6.304,5.287c0.076,0.064,0.164,0.114,0.25,0.173
			c0.055-0.038,0.099-0.063,0.137-0.095c2.076-1.741,4.154-3.479,6.229-5.222c0.333,1.962,0.558,3.873,0.66,5.708
			C46.645,32.077,46.654,33.493,46.591,34.86z M43.33,9.841c1.624,3.052,2.975,5.894,4.069,8.557
			c-0.743,0.623-1.484,1.247-2.227,1.87c-1.163-4.698-2.898-9.591-5.139-14.414C41.133,7.181,42.233,8.511,43.33,9.841z
			 M39.415,5.17c0.021,0.021,0.042,0.045,0.067,0.071c2.414,5.081,4.271,10.25,5.486,15.196c-0.49,0.411-0.981,0.823-1.47,1.235
			c-1.223,1.027-2.441,2.061-3.663,3.089c-0.326,0.273-0.332,0.271-0.639,0.017c-1.762-1.467-3.524-2.934-5.286-4.401
			C35.134,15.425,36.995,10.252,39.415,5.17z M35.973,9.236c1.247-1.553,2.339-2.854,2.937-3.55
			c-2.268,4.858-4.026,9.788-5.201,14.521c-0.714-0.593-1.426-1.187-2.139-1.781C32.736,15.581,34.201,12.529,35.973,9.236z
			 M30.104,22.341c0.017,0.015,0.031,0.032,0.049,0.047c0.873,0.733,1.746,1.465,2.619,2.197c-0.362,2.071-0.602,4.084-0.709,6.013
			c-0.07,1.292-0.084,2.546-0.045,3.764c-1.299-1.072-2.598-2.143-3.896-3.212C28.384,28.443,29.038,25.527,30.104,22.341z
			 M28.126,36.321c0.116,0.098,0.234,0.194,0.352,0.291c1.393,1.15,2.79,2.299,4.184,3.449c0.994,4.904,3.099,9.035,6.302,12.346
			C32.409,48.208,28.839,42.917,28.126,36.321z M32.955,40.301c2.066,1.703,4.135,3.409,6.203,5.112
			c0.114,0.095,0.237,0.177,0.357,0.266c0.113-0.088,0.196-0.146,0.275-0.211c2.018-1.622,4.037-3.244,6.055-4.871
			c-1.065,4.753-3.206,8.749-6.412,11.945C36.16,49.281,33.995,45.184,32.955,40.301z M40.005,52.415
			c-0.065,0.038-0.133,0.066-0.199,0.091c3.19-3.261,5.306-7.325,6.336-12.147c0.151-0.123,0.305-0.245,0.458-0.368
			c1.412-1.14,2.815-2.288,4.227-3.43C50.054,43.049,46.485,48.266,40.005,52.415z"/>
	</g>
</g>
</svg>